<?xml version="1.0" encoding="utf-8"?>
<!-- Generator: Adobe Illustrator 24.0.3, SVG Export Plug-In . SVG Version: 6.00 Build 0)  -->
<svg version="1.1" id="Layer_1" xmlns="http://www.w3.org/2000/svg" xmlns:xlink="http://www.w3.org/1999/xlink" x="0px" y="0px"
	 viewBox="0 0 72 72" style="enable-background:new 0 0 72 72;" xml:space="preserve">
<style type="text/css">
	.st0{fill:#FFFFFF;}
	.st1{fill:#4545AB;}
	.st2{fill:#171796;}
</style>
<g>
	<path class="st1" d="M28.5,32c-0.5,0.4-1.3,0.2-1.4-0.5c-0.4-1.6-0.3-4,0-5.4c0.4-1.5,1.3-3,2.4-4c0.4-0.4,1.1-0.3,1.3,0.2v0
		c0.2,0.4,0.2,0.9-0.1,1.2c-0.9,0.8-1.6,1.9-1.9,3.1c-0.4,1.5-0.3,3.5,0,4.5C28.9,31.4,28.7,31.8,28.5,32L28.5,32z"/>
	<g>
		<path class="st1" d="M47.5,61.6c-0.2-0.7-1.7-7.1-2.7-11.5l-5.4,1.3c1,4.5,2.5,10.9,2.6,11.5C42.3,64.5,48,63.5,47.5,61.6z"/>
		<path class="st1" d="M43.7,45.6c0,0-1.2,0.7-2.6,1c-1.3,0.3-2.8,0.2-2.8,0.2s0.3,1.3,0.7,3.3l5.4-1.3C44,46.9,43.7,45.6,43.7,45.6
			z"/>
	</g>
	<g>
		<path class="st2" d="M22.2,29L22.2,29c0-8,5.9-14.6,14.2-14.7c5.1,0,8.2,1.8,11,4.4l-2.2,2.3c-2.4-2.2-5-3.8-8.9-3.8
			c-6.2,0-10.9,5.1-10.8,11.6v0.1c0,6.5,4.7,11.6,10.9,11.6c3.9,0,6.4-1.5,9.1-4.1l2.1,2c-2.9,3-6.1,5-11.2,5
			C28.2,43.5,22.2,37.1,22.2,29z"/>
	</g>
</g>
</svg>
