<?xml version="1.0" encoding="utf-8"?>
<!-- Generator: Adobe Illustrator 24.0.3, SVG Export Plug-In . SVG Version: 6.00 Build 0)  -->
<svg version="1.1" id="Layer_1" xmlns="http://www.w3.org/2000/svg" xmlns:xlink="http://www.w3.org/1999/xlink" x="0px" y="0px"
	 viewBox="0 0 300 300" style="enable-background:new 0 0 300 300;" xml:space="preserve">
<style type="text/css">
	.st0{fill:#FFFFFF;}
	.st1{fill:#4545AB;}
	.st2{fill:#171796;}
</style>
<circle class="st0" cx="150" cy="150" r="150"/>
<g>
	<path class="st1" d="M176.4-116.5c-1.1,0.9-2.8,0.4-3.1-1c-1-3.5-0.8-8.8,0-11.8c0.9-3.4,2.8-6.4,5.3-8.7c0.9-0.8,2.3-0.6,2.9,0.4
		l0,0c0.5,0.8,0.4,1.9-0.3,2.5c-2,1.8-3.5,4.2-4.1,6.7c-0.8,3.2-0.6,7.6-0.1,9.7C177.3-117.8,177-117,176.4-116.5L176.4-116.5z"/>
	<g>
		<path class="st1" d="M217.8-52.4c-0.4-1.6-3.6-15.3-5.9-25L200-74.6c2.2,9.8,5.4,23.6,5.8,25.1C206.5-46.1,218.7-48.3,217.8-52.4z
			"/>
		<path class="st1" d="M209.5-87c0,0-2.5,1.4-5.7,2.1c-2.8,0.6-6.1,0.5-6.1,0.5s0.7,2.9,1.6,7.1l11.8-2.8
			C210.2-84.1,209.5-87,209.5-87z"/>
	</g>
	<g>
		<path class="st2" d="M162.8-123l0-0.2c-0.1-17.3,12.8-31.6,30.8-31.7c11.1,0,17.7,3.9,23.8,9.6l-4.7,5.1
			c-5.2-4.9-10.9-8.3-19.2-8.3c-13.5,0-23.6,11.1-23.6,25.1l0,0.2c0,14.1,10.3,25.2,23.7,25.1c8.4,0,13.9-3.3,19.7-8.9l4.5,4.4
			c-6.3,6.5-13.3,10.8-24.4,10.8C175.9-91.7,162.9-105.5,162.8-123z"/>
	</g>
	<g>
		<path class="st1" d="M221.3-123v-0.2c0-16.5,12.1-31.1,30.1-31.1c10.1,0,16.4,2.9,22.4,8l-4.4,5.2c-4.6-4-9.8-6.9-18.3-6.9
			c-13.3,0-22.8,11.2-22.8,24.6v0.2c0,14.3,9.2,25,23.8,25c6.9,0,13.2-2.7,17.3-6v-14.9h-18.3v-6.1H276v24c-5.6,5-14,9.2-24.1,9.2
			C233-92.1,221.3-105.8,221.3-123z"/>
		<path class="st1" d="M288.6-123v-0.2c0-17,12.7-31.1,30.4-31.1c10.9,0,17.4,3.9,23.4,9.5l-4.6,5c-5.1-4.8-10.7-8.2-18.9-8.2
			c-13.3,0-23.3,10.8-23.3,24.6v0.2c0,13.9,10,24.8,23.3,24.8c8.2,0,13.7-3.2,19.4-8.7l4.5,4.4c-6.3,6.4-13.1,10.6-24,10.6
			C301.4-92.1,288.6-105.8,288.6-123z"/>
	</g>
	<g>
		<path class="st2" d="M229-72.5c-2-0.6-4-1.2-4-2.8v-0.1c0-1.5,1.3-2.5,3.3-2.5c1.5,0,3.1,0.5,4.5,1.5l0.1,0.1l0.9-1.4l-0.1-0.1
			c-1.5-1-3.6-1.6-5.3-1.6c-2.9,0-5,1.7-5,4.2v0.1c0,2.7,2.7,3.4,5,4.1l0.1,0c2.1,0.6,3.8,1.2,3.8,2.9v0.1c0,1.6-1.4,2.7-3.5,2.7
			c-1.8,0-3.6-0.6-5.2-1.9l-0.1-0.1l-1,1.3l0.1,0.1c1.6,1.3,4,2.2,6.1,2.2c3,0,5.2-1.9,5.2-4.4v-0.1C234-70.9,231.5-71.8,229-72.5z"
			/>
		<path class="st2" d="M250.2-79.4c-4,0-7.1,3.4-7.1,7.8v0.1c0,4.5,3.2,7.8,7.4,7.8c2.5,0,4.4-0.8,6.2-2.8l0.1-0.1l-1.1-1l-0.1,0.1
			c-1.5,1.6-3,2.3-5,2.3c-3.1,0-5.4-2.3-5.7-5.6h12.3l0-0.1c0-0.2,0-0.3,0-0.6C257.1-76.2,254.3-79.4,250.2-79.4z M244.8-72.4
			c0.3-3.2,2.5-5.5,5.3-5.5c3.5,0,5,3,5.2,5.5H244.8z"/>
		<path class="st2" d="M272.3-79.3c-2.2,0-3.9,0.7-5.3,1.3l-0.1,0l0.6,1.4l0.1,0c1.6-0.8,3-1.2,4.6-1.2c3.1,0,4.8,1.6,4.8,4.4v0.5
			c-1.2-0.3-2.7-0.6-4.8-0.6c-4.1,0-6.6,1.9-6.6,4.9v0.1c0,1.5,0.6,2.7,1.9,3.6c1.1,0.8,2.5,1.2,4,1.2c3,0,4.7-1.5,5.6-2.6v2.3h1.6
			v-9.3c0-1.8-0.5-3.2-1.5-4.3C276-78.7,274.4-79.3,272.3-79.3z M272.1-72c2.1,0,3.7,0.3,4.9,0.6v1.6c0,2.5-2.4,4.5-5.5,4.5
			c-2.1,0-4.2-1.1-4.2-3.3v-0.1C267.4-70.7,269.2-72,272.1-72z"/>
		<path class="st2" d="M297.2-79.3c-2.6,0-4.9,1.6-6.2,4.1v-3.9h-1.6v15h1.6v-6.2c0-5,3.2-7.3,6.3-7.3h0.2v-1.8l-0.1,0
			C297.3-79.3,297.2-79.3,297.2-79.3z"/>
		<path class="st2" d="M317.6-67.7c-1.4,1.6-3.1,2.4-4.9,2.4c-3.4,0-6-2.8-6-6.3v-0.1c0-3.5,2.6-6.3,5.9-6.3c2.2,0,3.6,1.2,4.9,2.4
			l0.1,0.1l1.2-1.2l-0.1-0.1c-1.2-1.3-3-2.8-6-2.8c-4.2,0-7.6,3.5-7.6,7.8v0.1c0,4.3,3.4,7.8,7.6,7.8c2.4,0,4.3-0.9,6.1-3l0.1-0.1
			L317.6-67.7L317.6-67.7z"/>
		<path class="st2" d="M335.3-79.4c-2.3,0-4.1,1-5.2,2.8v-8.9h-1.6v21.4h1.6v-8.7c0-3,2.2-5.2,5-5.2c2.8,0,4.6,1.9,4.6,4.9v8.9h1.6
			v-9.2C341.3-77,338.9-79.4,335.3-79.4z"/>
	</g>
</g>
<g>
	<path class="st1" d="M111.9,120.8c-2.1,1.7-5.3,0.7-6-1.9c-1.8-6.7-1.4-16.8,0-22.6c1.6-6.4,5.3-12.4,10.2-16.7
		c1.7-1.5,4.4-1.1,5.6,0.8l0,0.1c1,1.6,0.8,3.6-0.6,4.9c-3.8,3.4-6.7,8-7.9,12.9c-1.6,6.2-1.2,14.5-0.1,18.7
		C113.5,118.3,113,119.9,111.9,120.8L111.9,120.8z"/>
	<g>
		<path class="st1" d="M191.3,244c-0.7-3.1-7-29.5-11.4-48l-22.7,5.4c4.3,18.8,10.4,45.3,11,48.1C169.7,256.1,193.1,251.9,191.3,244
			z"/>
		<path class="st1" d="M175.5,177.6c0,0-4.8,2.8-10.9,4.1c-5.5,1.2-11.7,1-11.7,1s1.3,5.6,3.1,13.6l22.7-5.4
			C176.8,183.1,175.5,177.6,175.5,177.6z"/>
	</g>
	<g>
		<path class="st2" d="M85.8,108.4l0-0.3c-0.1-33.2,24.6-60.7,59.1-60.8c21.3-0.1,34,7.4,45.8,18.4l-9,9.7c-9.9-9.3-21-16-36.9-16
			c-26,0.1-45.3,21.2-45.2,48.2l0,0.3c0.1,27.1,19.7,48.3,45.5,48.3c16.1,0,26.6-6.3,37.8-17l8.7,8.5
			c-12.2,12.4-25.6,20.7-46.8,20.7C110.9,168.6,85.9,142,85.8,108.4z"/>
	</g>
</g>
</svg>
