<?xml version="1.0" encoding="utf-8"?>
<!-- Generator: Adobe Illustrator 24.0.3, SVG Export Plug-In . SVG Version: 6.00 Build 0)  -->
<svg version="1.1" id="Layer_1" xmlns="http://www.w3.org/2000/svg" xmlns:xlink="http://www.w3.org/1999/xlink" x="0px" y="0px"
	 viewBox="0 0 72 72" style="enable-background:new 0 0 72 72;" xml:space="preserve">
<style type="text/css">
	.st0{fill:#FFFFFF;}
	.st1{fill:#4545AB;}
	.st2{fill:#171796;}
</style>
<circle class="st0" cx="-284" cy="36" r="150"/>
<g>
	<path class="st1" d="M-257.6-230.5c-1.1,0.9-2.8,0.4-3.1-1c-1-3.5-0.8-8.8,0-11.8c0.9-3.4,2.8-6.4,5.3-8.7c0.9-0.8,2.3-0.6,2.9,0.4
		l0,0c0.5,0.8,0.4,1.9-0.3,2.5c-2,1.8-3.5,4.2-4.1,6.7c-0.8,3.2-0.6,7.6-0.1,9.7C-256.7-231.8-257-231-257.6-230.5L-257.6-230.5z"/>
	<g>
		<path class="st1" d="M-216.2-166.4c-0.4-1.6-3.6-15.3-5.9-25l-11.9,2.8c2.2,9.8,5.4,23.6,5.8,25.1
			C-227.5-160.1-215.3-162.3-216.2-166.4z"/>
		<path class="st1" d="M-224.5-201c0,0-2.5,1.4-5.7,2.1c-2.8,0.6-6.1,0.5-6.1,0.5s0.7,2.9,1.6,7.1l11.8-2.8
			C-223.8-198.1-224.5-201-224.5-201z"/>
	</g>
	<g>
		<path class="st2" d="M-271.2-237v-0.2c-0.1-17.3,12.8-31.6,30.8-31.7c11.1,0,17.7,3.9,23.8,9.6l-4.7,5.1
			c-5.2-4.9-10.9-8.3-19.2-8.3c-13.5,0-23.6,11.1-23.6,25.1v0.2c0,14.1,10.3,25.2,23.7,25.1c8.4,0,13.9-3.3,19.7-8.9l4.5,4.4
			c-6.3,6.5-13.3,10.8-24.4,10.8C-258.1-205.7-271.1-219.5-271.2-237z"/>
	</g>
	<g>
		<path class="st1" d="M-212.7-237v-0.2c0-16.5,12.1-31.1,30.1-31.1c10.1,0,16.4,2.9,22.4,8l-4.4,5.2c-4.6-4-9.8-6.9-18.3-6.9
			c-13.3,0-22.8,11.2-22.8,24.6v0.2c0,14.3,9.2,25,23.8,25c6.9,0,13.2-2.7,17.3-6v-14.9h-18.3v-6.1h24.9v24c-5.6,5-14,9.2-24.1,9.2
			C-201-206.1-212.7-219.8-212.7-237z"/>
		<path class="st1" d="M-145.4-237v-0.2c0-17,12.7-31.1,30.4-31.1c10.9,0,17.4,3.9,23.4,9.5l-4.6,5c-5.1-4.8-10.7-8.2-18.9-8.2
			c-13.3,0-23.3,10.8-23.3,24.6v0.2c0,13.9,10,24.8,23.3,24.8c8.2,0,13.7-3.2,19.4-8.7l4.5,4.4c-6.3,6.4-13.1,10.6-24,10.6
			C-132.6-206.1-145.4-219.8-145.4-237z"/>
	</g>
	<g>
		<path class="st2" d="M-205-186.5c-2-0.6-4-1.2-4-2.8v-0.1c0-1.5,1.3-2.5,3.3-2.5c1.5,0,3.1,0.5,4.5,1.5l0.1,0.1l0.9-1.4l-0.1-0.1
			c-1.5-1-3.6-1.6-5.3-1.6c-2.9,0-5,1.7-5,4.2v0.1c0,2.7,2.7,3.4,5,4.1h0.1c2.1,0.6,3.8,1.2,3.8,2.9v0.1c0,1.6-1.4,2.7-3.5,2.7
			c-1.8,0-3.6-0.6-5.2-1.9l-0.1-0.1l-1,1.3l0.1,0.1c1.6,1.3,4,2.2,6.1,2.2c3,0,5.2-1.9,5.2-4.4v-0.1
			C-200-184.9-202.5-185.8-205-186.5z"/>
		<path class="st2" d="M-183.8-193.4c-4,0-7.1,3.4-7.1,7.8v0.1c0,4.5,3.2,7.8,7.4,7.8c2.5,0,4.4-0.8,6.2-2.8l0.1-0.1l-1.1-1
			l-0.1,0.1c-1.5,1.6-3,2.3-5,2.3c-3.1,0-5.4-2.3-5.7-5.6h12.3v-0.1c0-0.2,0-0.3,0-0.6C-176.9-190.2-179.7-193.4-183.8-193.4z
			 M-189.2-186.4c0.3-3.2,2.5-5.5,5.3-5.5c3.5,0,5,3,5.2,5.5H-189.2z"/>
		<path class="st2" d="M-161.7-193.3c-2.2,0-3.9,0.7-5.3,1.3h-0.1l0.6,1.4h0.1c1.6-0.8,3-1.2,4.6-1.2c3.1,0,4.8,1.6,4.8,4.4v0.5
			c-1.2-0.3-2.7-0.6-4.8-0.6c-4.1,0-6.6,1.9-6.6,4.9v0.1c0,1.5,0.6,2.7,1.9,3.6c1.1,0.8,2.5,1.2,4,1.2c3,0,4.7-1.5,5.6-2.6v2.3h1.6
			v-9.3c0-1.8-0.5-3.2-1.5-4.3C-158-192.7-159.6-193.3-161.7-193.3z M-161.9-186c2.1,0,3.7,0.3,4.9,0.6v1.6c0,2.5-2.4,4.5-5.5,4.5
			c-2.1,0-4.2-1.1-4.2-3.3v-0.1C-166.6-184.7-164.8-186-161.9-186z"/>
		<path class="st2" d="M-136.8-193.3c-2.6,0-4.9,1.6-6.2,4.1v-3.9h-1.6v15h1.6v-6.2c0-5,3.2-7.3,6.3-7.3h0.2v-1.8h-0.1
			C-136.7-193.3-136.8-193.3-136.8-193.3z"/>
		<path class="st2" d="M-116.4-181.7c-1.4,1.6-3.1,2.4-4.9,2.4c-3.4,0-6-2.8-6-6.3v-0.1c0-3.5,2.6-6.3,5.9-6.3
			c2.2,0,3.6,1.2,4.9,2.4l0.1,0.1l1.2-1.2l-0.1-0.1c-1.2-1.3-3-2.8-6-2.8c-4.2,0-7.6,3.5-7.6,7.8v0.1c0,4.3,3.4,7.8,7.6,7.8
			c2.4,0,4.3-0.9,6.1-3l0.1-0.1L-116.4-181.7L-116.4-181.7z"/>
		<path class="st2" d="M-98.7-193.4c-2.3,0-4.1,1-5.2,2.8v-8.9h-1.6v21.4h1.6v-8.7c0-3,2.2-5.2,5-5.2s4.6,1.9,4.6,4.9v8.9h1.6v-9.2
			C-92.7-191-95.1-193.4-98.7-193.4z"/>
	</g>
</g>
<g>
	<path class="st1" d="M-322.1,6.8c-2.1,1.7-5.3,0.7-6-1.9c-1.8-6.7-1.4-16.8,0-22.6c1.6-6.4,5.3-12.4,10.2-16.7
		c1.7-1.5,4.4-1.1,5.6,0.8v0.1c1,1.6,0.8,3.6-0.6,4.9c-3.8,3.4-6.7,8-7.9,12.9c-1.6,6.2-1.2,14.5-0.1,18.7
		C-320.5,4.3-321,5.9-322.1,6.8L-322.1,6.8z"/>
	<g>
		<path class="st1" d="M-242.7,130c-0.7-3.1-7-29.5-11.4-48l-22.7,5.4c4.3,18.8,10.4,45.3,11,48.1
			C-264.3,142.1-240.9,137.9-242.7,130z"/>
		<path class="st1" d="M-258.5,63.6c0,0-4.8,2.8-10.9,4.1c-5.5,1.2-11.7,1-11.7,1s1.3,5.6,3.1,13.6l22.7-5.4
			C-257.2,69.1-258.5,63.6-258.5,63.6z"/>
	</g>
	<g>
		<path class="st2" d="M-348.2-5.6v-0.3c-0.1-33.2,24.6-60.7,59.1-60.8c21.3-0.1,34,7.4,45.8,18.4l-9,9.7c-9.9-9.3-21-16-36.9-16
			c-26,0.1-45.3,21.2-45.2,48.2v0.3c0.1,27.1,19.7,48.3,45.5,48.3c16.1,0,26.6-6.3,37.8-17l8.7,8.5c-12.2,12.4-25.6,20.7-46.8,20.7
			C-323.1,54.6-348.1,28-348.2-5.6z"/>
	</g>
</g>
<g>
	<path class="st1" d="M28.5,32c-0.5,0.4-1.3,0.2-1.4-0.5c-0.4-1.6-0.3-4,0-5.4c0.4-1.5,1.3-3,2.4-4c0.4-0.4,1.1-0.3,1.3,0.2v0
		c0.2,0.4,0.2,0.9-0.1,1.2c-0.9,0.8-1.6,1.9-1.9,3.1c-0.4,1.5-0.3,3.5,0,4.5C28.9,31.4,28.7,31.8,28.5,32L28.5,32z"/>
	<g>
		<path class="st1" d="M47.5,61.6c-0.2-0.7-1.7-7.1-2.7-11.5l-5.4,1.3c1,4.5,2.5,10.9,2.6,11.5C42.3,64.5,48,63.5,47.5,61.6z"/>
		<path class="st1" d="M43.7,45.6c0,0-1.2,0.7-2.6,1c-1.3,0.3-2.8,0.2-2.8,0.2s0.3,1.3,0.7,3.3l5.4-1.3C44,46.9,43.7,45.6,43.7,45.6
			z"/>
	</g>
	<g>
		<path class="st2" d="M22.2,29L22.2,29c0-8,5.9-14.6,14.2-14.7c5.1,0,8.2,1.8,11,4.4l-2.2,2.3c-2.4-2.2-5-3.8-8.9-3.8
			c-6.2,0-10.9,5.1-10.8,11.6v0.1c0,6.5,4.7,11.6,10.9,11.6c3.9,0,6.4-1.5,9.1-4.1l2.1,2c-2.9,3-6.1,5-11.2,5
			C28.2,43.5,22.2,37.1,22.2,29z"/>
	</g>
</g>
</svg>
