<?xml version="1.0" encoding="utf-8"?>
<!-- Generator: Adobe Illustrator 24.0.3, SVG Export Plug-In . SVG Version: 6.00 Build 0)  -->
<svg version="1.1" id="Layer_1" xmlns="http://www.w3.org/2000/svg" xmlns:xlink="http://www.w3.org/1999/xlink" x="0px" y="0px"
	 viewBox="0 0 858.1 189" style="enable-background:new 0 0 858.1 189;" xml:space="preserve">
<style type="text/css">
	.st0{fill:#FFFFFF;stroke:#CCCCCC;stroke-width:0.25;stroke-miterlimit:10;}
	.st1{fill:#4545AB;}
	.st2{fill:#171796;}
	.st3{font-family:'Gotham-Light';}
	.st4{font-size:38.6064px;}
</style>
<path class="st0" d="M800.5,133.4h-743c-21.5,0-38.9-17.4-38.9-38.9v0C18.6,73,36,55.6,57.5,55.6h743c21.5,0,38.9,17.4,38.9,38.9v0
	C839.4,116,822,133.4,800.5,133.4z"/>
<g>
	<path class="st1" d="M772.7,87.1c-0.5,0.4-1.4,0.2-1.5-0.5c-0.5-1.7-0.4-4.3,0-5.8c0.4-1.6,1.4-3.2,2.6-4.3
		c0.4-0.4,1.1-0.3,1.4,0.2v0c0.3,0.4,0.2,0.9-0.2,1.2c-1,0.9-1.7,2-2,3.3c-0.4,1.6-0.3,3.7,0,4.8C773.1,86.4,772.9,86.8,772.7,87.1
		L772.7,87.1z"/>
	<g>
		<path class="st1" d="M792.9,118.5c-0.2-0.7-1.5-6.2-2.5-10.7c-0.2-0.8-1-1.4-1.9-1.2l-2.8,0.7c-0.8,0.2-1.4,1-1.2,1.9
			c1.1,4.6,2.3,10.1,2.5,10.8C787.4,121.6,793.4,120.5,792.9,118.5z"/>
		<path class="st1" d="M789.3,103.4c-0.2-0.9-1.2-1.4-2-1.1c-0.4,0.1-0.8,0.2-1.2,0.3c-0.4,0.1-0.8,0.1-1.2,0.2
			c-0.9,0.1-1.6,1-1.4,1.9c0,0,0,0.1,0,0.1c0.2,0.8,1,1.4,1.9,1.2l2.7-0.6C789,105.1,789.5,104.3,789.3,103.4
			C789.3,103.4,789.3,103.4,789.3,103.4z"/>
	</g>
	<g>
		<path class="st2" d="M766,83.9L766,83.9c0-8.5,6.3-15.6,15.1-15.6c4.7,0,7.8,1.4,10.4,3.6c0.7,0.6,0.8,1.6,0.1,2.3l-0.2,0.2
			c-0.6,0.6-1.5,0.7-2.1,0.1c-2.3-1.8-4.8-3.1-8.3-3.1c-6.6,0-11.6,5.4-11.5,12.3v0.1c0,6.9,5,12.3,11.6,12.3c3.6,0,6.1-1.2,8.6-3.4
			c0.6-0.5,1.5-0.5,2.1,0.1l0,0c0.6,0.6,0.6,1.7,0,2.3c-2.8,2.5-6,4.1-10.7,4.1C772.4,99.3,766,92.5,766,83.9z"/>
	</g>
</g>
<text transform="matrix(1 0 0 1 182.8184 106.5887)" class="st3 st4">What are you looking for?</text>
</svg>
