<?xml version="1.0" encoding="utf-8"?>
<!-- Generator: Adobe Illustrator 24.0.3, SVG Export Plug-In . SVG Version: 6.00 Build 0)  -->
<svg version="1.1" id="Layer_1" xmlns="http://www.w3.org/2000/svg" xmlns:xlink="http://www.w3.org/1999/xlink" x="0px" y="0px"
	 viewBox="0 0 146.6 82.4" style="enable-background:new 0 0 146.6 82.4;" xml:space="preserve">
<style type="text/css">
	.st0{display:none;enable-background:new    ;}
	.st1{display:inline;fill:#151B26;}
	.st2{fill:#FFFFFF;}
</style>
<g>
	<path class="st2" d="M20.4,30.7c-0.8,0.6-1.9,0.3-2.2-0.7c-0.7-2.4-0.5-6.1,0-8.2c0.6-2.3,1.9-4.5,3.7-6c0.6-0.5,1.6-0.4,2,0.3l0,0
		c0.4,0.6,0.3,1.3-0.2,1.8c-1.4,1.2-2.4,2.9-2.9,4.7c-0.6,2.2-0.4,5.2,0,6.7C21,29.8,20.9,30.3,20.4,30.7L20.4,30.7z"/>
	<g>
		<path class="st2" d="M49.1,75.1c-0.3-1.1-2.5-10.6-4.1-17.3l-8.2,1.9c1.5,6.8,3.7,16.3,4,17.3C41.3,79.4,49.7,77.9,49.1,75.1z"/>
		<path class="st2" d="M43.4,51.2c0,0-1.7,1-3.9,1.5c-2,0.4-4.2,0.4-4.2,0.4s0.5,2,1.1,4.9l8.2-1.9C43.8,53.1,43.4,51.2,43.4,51.2z"
			/>
	</g>
	<g>
		<path class="st2" d="M11,26.2l0-0.1c0-11.9,8.9-21.9,21.3-21.9c7.7,0,12.3,2.7,16.5,6.6l-3.2,3.5C42,10.9,38,8.5,32.3,8.6
			C22.9,8.6,16,16.2,16,25.9l0,0.1c0,9.8,7.1,17.4,16.4,17.4c5.8,0,9.6-2.3,13.6-6.1l3.1,3.1c-4.4,4.5-9.2,7.5-16.9,7.5
			C20.1,47.9,11.1,38.3,11,26.2z"/>
	</g>
	<g>
		<path class="st2" d="M51.5,26.2v-0.1c0-11.4,8.4-21.5,20.9-21.5c7,0,11.4,2,15.5,5.5l-3,3.6c-3.2-2.8-6.8-4.8-12.7-4.8
			C63,8.9,56.4,16.7,56.4,26v0.1c0,9.9,6.4,17.3,16.5,17.3c4.8,0,9.2-1.8,12-4.2V28.9H72.2v-4.2h17.2v16.6
			c-3.9,3.4-9.7,6.4-16.7,6.4C59.6,47.6,51.5,38.1,51.5,26.2z"/>
		<path class="st2" d="M98.1,26.2v-0.1c0-11.8,8.8-21.5,21-21.5c7.5,0,12.1,2.7,16.2,6.6l-3.2,3.4c-3.5-3.3-7.4-5.7-13.1-5.7
			c-9.2,0-16.1,7.5-16.1,17.1v0.1c0,9.6,7,17.2,16.1,17.2c5.7,0,9.5-2.2,13.4-6l3.1,3c-4.3,4.4-9.1,7.3-16.6,7.3
			C107,47.6,98.1,38.1,98.1,26.2z"/>
	</g>
	<g>
		<path class="st2" d="M56.8,61.2c-1.4-0.4-2.8-0.8-2.8-1.9v0c0-1,0.9-1.7,2.3-1.7c1,0,2.1,0.4,3.1,1l0.1,0l0.6-0.9l-0.1,0
			c-1.1-0.7-2.5-1.1-3.7-1.1c-2,0-3.4,1.2-3.4,2.9v0c0,1.9,1.9,2.4,3.5,2.9l0.1,0c1.5,0.4,2.7,0.8,2.7,2v0c0,1.1-1,1.9-2.4,1.9
			c-1.3,0-2.5-0.4-3.6-1.3l-0.1,0l-0.7,0.9l0.1,0c1.1,0.9,2.8,1.5,4.2,1.5c2.1,0,3.6-1.3,3.6-3.1v0C60.3,62.3,58.6,61.6,56.8,61.2z"
			/>
		<path class="st2" d="M71.5,56.4c-2.8,0-4.9,2.4-4.9,5.4v0c0,3.1,2.2,5.4,5.1,5.4c1.7,0,3-0.6,4.3-2l0-0.1l-0.8-0.7l0,0
			c-1,1.1-2.1,1.6-3.5,1.6c-2.1,0-3.7-1.6-3.9-3.9h8.5l0-0.1c0-0.2,0-0.2,0-0.4C76.3,58.6,74.3,56.4,71.5,56.4z M67.8,61.3
			c0.2-2.2,1.8-3.8,3.7-3.8c2.4,0,3.5,2.1,3.6,3.8H67.8z"/>
		<path class="st2" d="M86.8,56.5c-1.5,0-2.7,0.5-3.7,0.9l-0.1,0l0.4,1l0.1,0c1.1-0.6,2.1-0.8,3.2-0.8c2.1,0,3.3,1.1,3.3,3.1v0.4
			c-0.9-0.2-1.8-0.4-3.3-0.4c-2.8,0-4.5,1.3-4.5,3.4v0c0,1,0.4,1.9,1.3,2.5c0.7,0.5,1.7,0.8,2.7,0.8c2.1,0,3.3-1.1,3.8-1.8V67h1.1
			v-6.5c0-1.3-0.3-2.2-1.1-2.9C89.3,56.8,88.2,56.5,86.8,56.5z M86.7,61.5c1.4,0,2.6,0.2,3.4,0.4v1.1c0,1.8-1.6,3.1-3.8,3.1
			c-1.4,0-2.9-0.8-2.9-2.3v0C83.4,62.4,84.6,61.5,86.7,61.5z"/>
		<path class="st2" d="M104,56.5c-1.8,0-3.4,1.1-4.3,2.8v-2.7h-1.1V67h1.1v-4.3c0-3.5,2.2-5.1,4.4-5.1h0.2v-1.2l-0.1,0
			C104.1,56.5,104.1,56.5,104,56.5z"/>
		<path class="st2" d="M118.2,64.5c-1,1.1-2.1,1.7-3.4,1.7c-2.3,0-4.1-1.9-4.1-4.4v0c0-2.4,1.8-4.3,4.1-4.3c1.5,0,2.5,0.8,3.4,1.7
			l0.1,0.1l0.8-0.8l0,0c-0.9-0.9-2.1-1.9-4.1-1.9c-2.9,0-5.3,2.4-5.3,5.4v0c0,3,2.4,5.4,5.3,5.4c1.7,0,3-0.6,4.2-2.1l0-0.1
			L118.2,64.5L118.2,64.5z"/>
		<path class="st2" d="M130.4,56.4c-1.6,0-2.8,0.7-3.6,2v-6.1h-1.1V67h1.1v-6c0-2,1.5-3.6,3.5-3.6c2,0,3.2,1.3,3.2,3.4V67h1.1v-6.3
			C134.5,58.1,132.9,56.4,130.4,56.4z"/>
	</g>
</g>
</svg>
