<?xml version="1.0" encoding="utf-8"?>
<!-- Generator: Adobe Illustrator 24.0.3, SVG Export Plug-In . SVG Version: 6.00 Build 0)  -->
<svg version="1.1" xmlns="http://www.w3.org/2000/svg" xmlns:xlink="http://www.w3.org/1999/xlink" x="0px" y="0px"
	 viewBox="0 0 1396.6 597.5" style="enable-background:new 0 0 1396.6 597.5;" xml:space="preserve">
<style type="text/css">
	.st0{display:none;}
	.st1{display:inline;}
	.st2{fill:#FFFFFF;stroke:#E7EAF3;stroke-miterlimit:10;}
	.st3{fill:#F7F7F7;}
	.st4{fill:#FFFFFF;}
	.st5{fill:#EFEFEF;}
	.st6{fill:url(#SVGID_1_);}
	.st7{clip-path:url(#SVGID_4_);}
	.st8{fill:none;stroke:#E7EAF3;stroke-miterlimit:10;}
	.st9{clip-path:url(#SVGID_7_);}
	.st10{clip-path:url(#SVGID_10_);}
	.st11{fill:#FFFFFF;stroke:#ADB0B6;stroke-width:0.9646;stroke-miterlimit:10;}
	.st12{fill:#031047;}
	.st13{fill:#051262;}
	.st14{fill:#FFFFFF;stroke:#E7EAF3;stroke-width:0.9646;stroke-miterlimit:10;}
	.st15{fill:url(#SVGID_11_);stroke:#FFFFFF;stroke-miterlimit:10;}
	.st16{fill:url(#SVGID_12_);stroke:#FFFFFF;stroke-miterlimit:10;}
	.st17{fill:url(#SVGID_13_);stroke:#FFFFFF;stroke-miterlimit:10;}
	.st18{fill:url(#SVGID_14_);stroke:#FFFFFF;stroke-miterlimit:10;}
	.st19{fill:url(#SVGID_17_);}
	.st20{fill:url(#SVGID_18_);}
	.st21{fill:url(#SVGID_19_);}
	.st22{fill:#FFFFFF;stroke:#ADB0B6;stroke-miterlimit:10;}
	.st23{clip-path:url(#SVGID_21_);}
	.st24{fill:url(#SVGID_22_);}
	.st25{fill:#0B357F;}
	.st26{opacity:0.1;fill:#FFFFFF;enable-background:new    ;}
	.st27{fill:#303030;}
	.st28{fill:none;stroke:#FFFFFF;stroke-width:0.5;stroke-miterlimit:10;}
</style>
<g id="Layer_1" class="st0">
	<g id="Layer_1_1_">
		<g id="macbook_1_" class="st1">
			<g id="laptop">
				<path class="st2" d="M1112.3,577H348.5c-14.4,0-26.2-11.8-26.2-26.2V26.7c0-14.4,11.8-26.2,26.2-26.2h763.9
					c14.4,0,26.2,11.8,26.2,26.2v524.2C1138.5,565.2,1126.7,577,1112.3,577z"/>
				<circle class="st3" cx="729" cy="23.8" r="3"/>
				<path class="st4" d="M1227.3,561.2H233.9c-1.5,0-2.8-1.3-2.8-2.8l0,0c0-1.5,1.3-2.8,2.8-2.8h993.4c1.5,0,2.8,1.3,2.8,2.8l0,0
					C1230.1,559.9,1228.9,561.2,1227.3,561.2z"/>
				<path class="st5" d="M730.6,563L231,561.2c0,0,24.1,11.3,117.8,15.8H729h3.1h380.2c93.7-4.5,117.8-15.8,117.8-15.8L730.6,563z"
					/>
				
					<linearGradient id="SVGID_1_" gradientUnits="userSpaceOnUse" x1="634.9" y1="-433.2" x2="826" y2="-433.2" gradientTransform="matrix(1 0 0 -1 0 126)">
					<stop  offset="5.908129e-07" style="stop-color:#F0F1F2"/>
					<stop  offset="5.235744e-02" style="stop-color:#F6F7F8"/>
					<stop  offset="0.1708" style="stop-color:#FDFDFD"/>
					<stop  offset="0.5" style="stop-color:#FFFFFF"/>
					<stop  offset="0.8292" style="stop-color:#FDFDFD"/>
					<stop  offset="0.9476" style="stop-color:#F6F7F8"/>
					<stop  offset="1" style="stop-color:#F0F1F2"/>
				</linearGradient>
				<path class="st6" d="M822.4,562.7h-184c-1.9,0-3.5-1.6-3.5-3.5v-3.5H826v3.5C826,561.1,824.4,562.7,822.4,562.7z"/>
				<g>
					<g>
						<g>
							<g>
								<g>
									<g>
										<defs>
											<rect id="SVGID_3_" x="352.7" y="38" width="752.5" height="469.7"/>
										</defs>
										<clipPath id="SVGID_4_">
											<use xlink:href="#SVGID_3_"  style="overflow:visible;"/>
										</clipPath>
										<g class="st7">
											
												<image style="overflow:visible;enable-background:new    ;" width="753" height="470" xlink:href="../../img/753x470/img2.jpg"  transform="matrix(1 0 0 1 352.4944 38)">
											</image>
										</g>
									</g>
								</g>
							</g>
						</g>
					</g>
					<g>
						<rect id="SVGID_2_" x="352.7" y="38" class="st8" width="752.5" height="469.7"/>
					</g>
				</g>
			</g>
			<g id="phone">
				<path class="st2" d="M1342.1,597h-120.9c-29.7,0-54-24.3-54-54V170.9c0-29.7,24.3-54,54-54h120.9c29.7,0,54,24.3,54,54V543
					C1396.1,572.7,1371.8,597,1342.1,597z"/>
				<circle class="st3" cx="1282.4" cy="563.4" r="18.4"/>
				<path class="st3" d="M1297.2,153.7h-30.3c-1.6,0-2.9-1.3-2.9-2.9l0,0c0-1.6,1.3-2.9,2.9-2.9h30.3c1.6,0,2.9,1.3,2.9,2.9l0,0
					C1300.1,152.4,1298.8,153.7,1297.2,153.7z"/>
				<g>
					<g>
						<g>
							<g>
								<g>
									<defs>
										<rect id="SVGID_6_" x="1181.2" y="174.8" width="202.2" height="361"/>
									</defs>
									<clipPath id="SVGID_7_">
										<use xlink:href="#SVGID_6_"  style="overflow:visible;"/>
									</clipPath>
									<g class="st9">
										
											<image style="overflow:visible;enable-background:new    ;" width="425" height="457" xlink:href="../../../../../../Downloads/space-v1.6.1/assets/img/425x457/img2.jpg"  transform="matrix(0.6644 0 0 0.6644 1141.4542 203.4791)">
										</image>
									</g>
								</g>
							</g>
						</g>
					</g>
					<g>
						<rect id="SVGID_5_" x="1181.2" y="174.8" class="st8" width="202.2" height="361"/>
					</g>
				</g>
			</g>
			<g id="tablet">
				<path id="BG_Color" class="st2" d="M560.9,597H35c-19,0-34.5-15.5-34.5-34.5V229.3c0-19,15.5-34.5,34.5-34.5h525.9
					c19,0,34.5,15.5,34.5,34.5v333.1C595.5,581.5,579.9,597,560.9,597z"/>
				<circle id="Touch" class="st3" cx="30.8" cy="396.6" r="17"/>
				<circle id="Camera_1_" class="st3" cx="564.8" cy="396.1" r="4.1"/>
				<g>
					<g>
						<g>
							<g>
								<defs>
									<rect id="SVGID_9_" x="63.9" y="218.8" width="474.2" height="355.5"/>
								</defs>
								<clipPath id="SVGID_10_">
									<use xlink:href="#SVGID_9_"  style="overflow:visible;"/>
								</clipPath>
								<g class="st10">
									
										<image style="overflow:visible;enable-background:new    ;" width="711" height="532" xlink:href="../../img/711x532/img1.jpg"  transform="matrix(0.667 0 0 0.667 63.8648 219.1454)">
									</image>
								</g>
							</g>
						</g>
					</g>
					<g>
						<rect id="SVGID_8_" x="63.9" y="218.8" class="st8" width="474.2" height="355.5"/>
					</g>
				</g>
			</g>
		</g>
	</g>
</g>
<g id="Layer_2">
	<g id="Layer_2_1_">
		<path id="Border" class="st11" d="M1133-0.4H359.9c-15.2,0-27.6,12.4-27.6,27.6v513.4h828.2V27.2C1160.6,12,1148.2-0.4,1133-0.4z"
			/>
		<rect id="_x5B_YOUR_SCREEN_HERE_x5D_" x="361.6" y="39.1" class="st12" width="769.7" height="480.8"/>
		<rect x="361.6" y="39.1" class="st13" width="115.2" height="6"/>
		<path id="Bottom" class="st14" d="M332.4,550.8c0,15.2,12.4,27.6,27.6,27.6h773c15.2,0,27.6-12.4,27.6-27.6v-10.2H332.4V550.8z"/>
		<g id="Body">
			
				<linearGradient id="SVGID_11_" gradientUnits="userSpaceOnUse" x1="235.9" y1="1468.55" x2="1257.1" y2="1468.55" gradientTransform="matrix(1 0 0 1 0 -902)">
				<stop  offset="0" style="stop-color:#282829"/>
				<stop  offset="2.315561e-02" style="stop-color:#E6E6E6"/>
				<stop  offset="3.865980e-02" style="stop-color:#F7F7F7"/>
				<stop  offset="7.818541e-02" style="stop-color:#E6E6E6"/>
				<stop  offset="0.5049" style="stop-color:#E3E3E3"/>
				<stop  offset="0.913" style="stop-color:#C3C3C7"/>
				<stop  offset="0.9721" style="stop-color:#F3F3FA"/>
				<stop  offset="0.9755" style="stop-color:#EFEFF5"/>
				<stop  offset="0.9793" style="stop-color:#E1E1E8"/>
				<stop  offset="0.9833" style="stop-color:#CCCCD2"/>
				<stop  offset="0.9874" style="stop-color:#ADADB2"/>
				<stop  offset="0.9917" style="stop-color:#86868A"/>
				<stop  offset="0.9959" style="stop-color:#56565A"/>
				<stop  offset="1" style="stop-color:#222224"/>
			</linearGradient>
			<polygon class="st15" points="1257.1,563.9 746.5,563.9 235.9,563.9 235.9,569.2 1257.1,569.2 			"/>
			
				<linearGradient id="SVGID_12_" gradientUnits="userSpaceOnUse" x1="746.5" y1="1471.0511" x2="746.5" y2="1487.3345" gradientTransform="matrix(1 0 0 1 0 -902)">
				<stop  offset="0" style="stop-color:#898A8F"/>
				<stop  offset="1" style="stop-color:#141414"/>
			</linearGradient>
			<path class="st16" d="M746.5,584.6c0,0,264.3,0,371.6,0s139-15.4,139-15.4H235.9c0,0,31.7,15.4,139,15.4S746.5,584.6,746.5,584.6
				z"/>
			
				<linearGradient id="SVGID_13_" gradientUnits="userSpaceOnUse" x1="649" y1="1469.75" x2="843.8" y2="1469.75" gradientTransform="matrix(1 0 0 1 0 -902)">
				<stop  offset="0" style="stop-color:#4B4B4D"/>
				<stop  offset="2.550150e-02" style="stop-color:#8B8B8C"/>
				<stop  offset="4.653653e-02" style="stop-color:#B9B9BA"/>
				<stop  offset="5.704333e-02" style="stop-color:#CBCBCC"/>
				<stop  offset="0.9323" style="stop-color:#BFBFBF"/>
				<stop  offset="0.9422" style="stop-color:#B8B8B8"/>
				<stop  offset="0.9568" style="stop-color:#A4A4A4"/>
				<stop  offset="0.9745" style="stop-color:#838384"/>
				<stop  offset="0.9942" style="stop-color:#565658"/>
				<stop  offset="1" style="stop-color:#47484A"/>
			</linearGradient>
			<path class="st17" d="M746.5,563.9H649v5.2c6.8,1.7,20.4,2.5,39.4,2.5c15.7,0,58,0,58,0s42.3,0,58,0c19,0,32.7-0.8,39.4-2.5v-5.2
				H746.5z"/>
			
				<linearGradient id="SVGID_14_" gradientUnits="userSpaceOnUse" x1="230.9329" y1="1478.8999" x2="1258.108" y2="1478.8999" gradientTransform="matrix(1 0 0 1 0 -902)">
				<stop  offset="0" style="stop-color:#B5B5B5"/>
				<stop  offset="2.241702e-02" style="stop-color:#C3C3C3"/>
				<stop  offset="6.660090e-02" style="stop-color:#D9D9D9"/>
				<stop  offset="0.1186" style="stop-color:#EAEAEA"/>
				<stop  offset="0.1827" style="stop-color:#F6F6F6"/>
				<stop  offset="0.2718" style="stop-color:#FDFDFD"/>
				<stop  offset="0.5112" style="stop-color:#FFFFFF"/>
				<stop  offset="0.7072" style="stop-color:#FDFDFD"/>
				<stop  offset="0.7909" style="stop-color:#F6F6F6"/>
				<stop  offset="0.8531" style="stop-color:#E9E9E9"/>
				<stop  offset="0.9048" style="stop-color:#D8D8D8"/>
				<stop  offset="0.9499" style="stop-color:#C0C0C0"/>
				<stop  offset="0.9897" style="stop-color:#A5A5A5"/>
				<stop  offset="1" style="stop-color:#9C9C9C"/>
			</linearGradient>
			<path class="st18" d="M746.5,584.6c0,0,264.3,0,371.6,0s139-15.4,139-15.4H235.9c0,0,31.7,15.4,139,15.4S746.5,584.6,746.5,584.6
				z"/>
		</g>
		<g>
			<g>
				<g>
					<defs>
						<rect id="SVGID_15_" x="361.6" y="45.1" width="769.7" height="480.8"/>
					</defs>
					<clipPath id="SVGID_16_">
						<use xlink:href="#SVGID_15_"  style="overflow:visible;"/>
					</clipPath>
					<g style="clip-path:url(#SVGID_16_);enable-background:new    ;">
						
							<image style="overflow:visible;" width="1440" height="790" xlink:href="../../img/mockups/laptop-set.png"  transform="matrix(0.6231 0 0 0.6231 361.3405 40.7539)">
						</image>
					</g>
				</g>
			</g>
		</g>
		
			<linearGradient id="SVGID_17_" gradientUnits="userSpaceOnUse" x1="648.7" y1="589.7" x2="844" y2="589.7" gradientTransform="matrix(1 0 0 1 0 -18)">
			<stop  offset="5.908129e-07" style="stop-color:#F0F1F2"/>
			<stop  offset="5.235744e-02" style="stop-color:#F6F7F8"/>
			<stop  offset="0.1708" style="stop-color:#FDFDFD"/>
			<stop  offset="0.5" style="stop-color:#FFFFFF"/>
			<stop  offset="0.8292" style="stop-color:#FDFDFD"/>
			<stop  offset="0.9476" style="stop-color:#F6F7F8"/>
			<stop  offset="1" style="stop-color:#F0F1F2"/>
		</linearGradient>
		<path class="st19" d="M840.4,575.3H652.3c-1.9,0-3.6-1.6-3.6-3.6v-3.6H844v3.6C844,573.7,842.4,575.3,840.4,575.3z"/>
		<path class="st3" d="M1298.9,115.8h-27.4c-1.4,0-2.6-1.2-2.6-2.6l0,0c0-1.4,1.2-2.6,2.6-2.6h27.4c1.4,0,2.6,1.2,2.6,2.6l0,0
			C1301.5,114.6,1300.3,115.8,1298.9,115.8z"/>
		<g>
			
				<linearGradient id="SVGID_18_" gradientUnits="userSpaceOnUse" x1="1883.0991" y1="-1404.8108" x2="2103.9783" y2="-1165.9802" gradientTransform="matrix(6.123234e-17 1 1 -6.123234e-17 1481.8379 -1591.2264)">
				<stop  offset="0.1077" style="stop-color:#F5F7FF"/>
				<stop  offset="0.2609" style="stop-color:#CACDD4"/>
				<stop  offset="0.3188" style="stop-color:#C8CBD2"/>
				<stop  offset="0.3397" style="stop-color:#C2C5CB"/>
				<stop  offset="0.3546" style="stop-color:#B8BAC0"/>
				<stop  offset="0.3666" style="stop-color:#A9ABAF"/>
				<stop  offset="0.3768" style="stop-color:#979799"/>
				<stop  offset="0.3831" style="stop-color:#878787"/>
				<stop  offset="0.3963" style="stop-color:#8B8B8B"/>
				<stop  offset="0.4105" style="stop-color:#989898"/>
				<stop  offset="0.425" style="stop-color:#ADADAE"/>
				<stop  offset="0.4399" style="stop-color:#CACACC"/>
				<stop  offset="0.4549" style="stop-color:#EFF0F2"/>
				<stop  offset="0.4595" style="stop-color:#FCFDFF"/>
				<stop  offset="0.471" style="stop-color:#FAFBFD"/>
				<stop  offset="0.4751" style="stop-color:#F3F4F6"/>
				<stop  offset="0.4781" style="stop-color:#E8E9EB"/>
				<stop  offset="0.4805" style="stop-color:#D7D8DA"/>
				<stop  offset="0.4825" style="stop-color:#C1C2C4"/>
				<stop  offset="0.4844" style="stop-color:#A6A7A8"/>
				<stop  offset="0.486" style="stop-color:#868788"/>
				<stop  offset="0.4875" style="stop-color:#616162"/>
				<stop  offset="0.4889" style="stop-color:#373838"/>
				<stop  offset="0.4901" style="stop-color:#0A0A0A"/>
				<stop  offset="0.4903" style="stop-color:#050505"/>
				<stop  offset="0.5074" style="stop-color:#797A7E"/>
				<stop  offset="1" style="stop-color:#EDEDED"/>
			</linearGradient>
			<path class="st20" d="M578.1,574.1v-180H2.7v180c0,12.9,10.5,23.4,23.4,23.4h528.6C567.6,597.5,578.1,587,578.1,574.1z"/>
			
				<linearGradient id="SVGID_19_" gradientUnits="userSpaceOnUse" x1="3833.1462" y1="-1404.8262" x2="4054.0249" y2="-1165.9958" gradientTransform="matrix(4.489694e-11 -1 1 4.489694e-11 1481.8376 4329.4878)">
				<stop  offset="0.1077" style="stop-color:#F5F7FF"/>
				<stop  offset="0.2609" style="stop-color:#CACDD4"/>
				<stop  offset="0.3188" style="stop-color:#C8CBD2"/>
				<stop  offset="0.3397" style="stop-color:#C2C5CB"/>
				<stop  offset="0.3546" style="stop-color:#B8BAC0"/>
				<stop  offset="0.3666" style="stop-color:#A9ABAF"/>
				<stop  offset="0.3768" style="stop-color:#979799"/>
				<stop  offset="0.3831" style="stop-color:#878787"/>
				<stop  offset="0.3963" style="stop-color:#8B8B8B"/>
				<stop  offset="0.4105" style="stop-color:#989898"/>
				<stop  offset="0.425" style="stop-color:#ADADAE"/>
				<stop  offset="0.4399" style="stop-color:#CACACC"/>
				<stop  offset="0.4549" style="stop-color:#EFF0F2"/>
				<stop  offset="0.4595" style="stop-color:#FCFDFF"/>
				<stop  offset="0.471" style="stop-color:#FAFBFD"/>
				<stop  offset="0.4751" style="stop-color:#F3F4F6"/>
				<stop  offset="0.4781" style="stop-color:#E8E9EB"/>
				<stop  offset="0.4805" style="stop-color:#D7D8DA"/>
				<stop  offset="0.4825" style="stop-color:#C1C2C4"/>
				<stop  offset="0.4844" style="stop-color:#A6A7A8"/>
				<stop  offset="0.486" style="stop-color:#868788"/>
				<stop  offset="0.4875" style="stop-color:#616162"/>
				<stop  offset="0.4889" style="stop-color:#373838"/>
				<stop  offset="0.4901" style="stop-color:#0A0A0A"/>
				<stop  offset="0.4903" style="stop-color:#050505"/>
				<stop  offset="0.5074" style="stop-color:#797A7E"/>
				<stop  offset="1" style="stop-color:#EDEDED"/>
			</linearGradient>
			<path class="st21" d="M578.1,214.1v180H2.7v-180c0-12.9,10.5-23.4,23.4-23.4h528.6C567.6,190.7,578.1,201.2,578.1,214.1z"/>
			<path class="st22" d="M578.1,574.1v-180H2.7v180c0,12.9,10.5,23.4,23.4,23.4h528.6C567.6,597.5,578.1,587,578.1,574.1z"/>
			<path class="st22" d="M578.1,214.1v180H2.7v-180c0-12.9,10.5-23.4,23.4-23.4h528.6C567.6,190.7,578.1,201.2,578.1,214.1z"/>
			<path class="st14" d="M5.4,214.1c0-11.4,9.3-20.6,20.6-20.6h528.6c11.4,0,20.6,9.3,20.6,20.6v360c0,11.4-9.3,20.6-20.6,20.6H26.1
				c-11.4,0-20.6-9.3-20.6-20.6L5.4,214.1L5.4,214.1z"/>
			<rect x="52.1" y="215.3" width="476.5" height="357.7"/>
			<g>
				<g>
					<g>
						<g>
							<defs>
								<rect id="SVGID_20_" x="54" y="217.2" width="472.6" height="353.8"/>
							</defs>
							<clipPath id="SVGID_21_">
								<use xlink:href="#SVGID_20_"  style="overflow:visible;"/>
							</clipPath>
							<g transform="matrix(1 0 0 1 -3.814697e-06 0)" class="st23">
								
									<image style="overflow:visible;enable-background:new    ;" width="617" height="464" xlink:href="../../img/mockups/sermon-ipad.png"  transform="matrix(0.7683 0 0 0.7683 52.3549 216.4972)">
								</image>
							</g>
						</g>
					</g>
				</g>
			</g>
			<g id="Camera_2_">
				
					<linearGradient id="SVGID_22_" gradientUnits="userSpaceOnUse" x1="1985.1263" y1="-927.3644" x2="1985.1263" y2="-932.7969" gradientTransform="matrix(6.123234e-17 1 1 -6.123234e-17 1481.8379 -1591.2264)">
					<stop  offset="0" style="stop-color:#000000"/>
					<stop  offset="1" style="stop-color:#474747"/>
				</linearGradient>
				<circle class="st24" cx="551.6" cy="393.9" r="2.9"/>
				
					<image style="overflow:visible;enable-background:new    ;" width="4" height="5" xlink:href="B7EB4763DD23AFA3.png"  transform="matrix(1.0221 0 0 1.0221 549.6849 391.1461)">
				</image>
				<circle class="st25" cx="551.7" cy="393.1" r="0.8"/>
				<circle class="st26" cx="551.1" cy="392.9" r="0.5"/>
			</g>
		</g>
		<g>
			<path id="XMLID_124_" class="st14" d="M1151.5,194.7h-4.2c-0.8,0-1.4-0.6-1.4-1.4V178c0-0.8,0.6-1.4,1.4-1.4h4.2V194.7z"/>
			<path id="XMLID_123_" class="st14" d="M1151.5,246.2h-4.2c-0.8,0-1.4-0.6-1.4-1.4v-32c0-0.8,0.6-1.4,1.4-1.4h4.2V246.2z"/>
			<path id="XMLID_122_" class="st14" d="M1387.3,278.2h-4.2v-55.6h4.2c0.8,0,1.4,0.6,1.4,1.4v52.8
				C1388.7,277.6,1388,278.2,1387.3,278.2z"/>
			<path id="XMLID_121_" class="st14" d="M1151.5,290.1h-4.2c-0.8,0-1.4-0.6-1.4-1.4v-32c0-0.8,0.6-1.4,1.4-1.4h4.2V290.1z"/>
			<path id="XMLID_118_" class="st11" d="M1350.4,110.7h-166.2c-19.9,0-36.2,16.1-36.2,36.2v414.4c0,19.9,16.1,36.2,36.2,36.2h166.2
				c19.9,0,36.2-16.1,36.2-36.2V146.9C1386.5,126.8,1370.4,110.7,1350.4,110.7z M1376.1,561.3c0,14.2-11.5,25.8-25.8,25.8h-166.2
				c-14.2,0-25.8-11.5-25.8-25.8V146.9c0-14.2,11.5-25.8,25.8-25.8h166.2c14.2,0,25.8,11.5,25.8,25.8V561.3z"/>
			<path id="XMLID_117_" class="st14" d="M1184.2,589.8c-15.7,0-28.5-12.8-28.5-28.5V146.9c0-15.7,12.8-28.5,28.5-28.5h166.2
				c15.7,0,28.5,12.8,28.5,28.5v414.4c0,15.7-12.8,28.5-28.5,28.5H1184.2z"/>
			<g>
				<g>
					<defs>
						<path id="SVGID_23_" d="M1184.2,584.2c-12.7,0-23-10.3-23-23V146.9c0-12.7,10.3-23,23-23h21.4c2.2,0,4.1,1.7,4.2,4l0.1,2.7
							c0.2,5.6,4.8,10,10.4,10h94c5.6,0,10.2-4.4,10.4-10l0.1-2.7c0.1-2.2,1.9-4,4.2-4h21.4c12.7,0,23,10.3,23,23v414.4
							c0,12.7-10.3,23-23,23L1184.2,584.2L1184.2,584.2z"/>
					</defs>
					<clipPath id="SVGID_24_">
						<use xlink:href="#SVGID_23_"  style="overflow:visible;"/>
					</clipPath>
					<g style="clip-path:url(#SVGID_24_);enable-background:new    ;">
						
							<image style="overflow:visible;" width="828" height="1792" xlink:href="../../img/mockups/iphone-screenshot.jpeg"  transform="matrix(0.2591 0 0 0.2591 1159.5907 121.3019)">
						</image>
					</g>
				</g>
			</g>
			<circle id="XMLID_115_" class="st27" cx="1293.7" cy="130.8" r="4.2"/>
			<path id="XMLID_114_" class="st27" d="M1279.8,133h-25c-1.1,0-2-0.9-2-2l0,0c0-1.1,0.9-2,2-2h25c1.1,0,2,0.9,2,2l0,0
				C1281.9,132.1,1281,133,1279.8,133z"/>
		</g>
		<circle id="XMLID_1_" class="st27" cx="746.5" cy="19.7" r="4.2"/>
		<line class="st28" x1="476.9" y1="45.1" x2="476.9" y2="39.1"/>
	</g>
</g>
</svg>
