<?xml version="1.0" encoding="utf-8"?>
<!-- Generator: Adobe Illustrator 24.0.3, SVG Export Plug-In . SVG Version: 6.00 Build 0)  -->
<svg version="1.1" id="Layer_1" xmlns="http://www.w3.org/2000/svg" xmlns:xlink="http://www.w3.org/1999/xlink" x="0px" y="0px"
	 viewBox="0 0 150 81.7" style="enable-background:new 0 0 150 81.7;" xml:space="preserve">
<style type="text/css">
	.st0{display:none;}
	.st1{display:inline;}
	.st2{fill:none;stroke:#21C87A;stroke-width:2;stroke-linecap:round;stroke-linejoin:round;stroke-miterlimit:10;}
</style>
<g id="Layer_1_1_" class="st0">
	<g class="st1">
		<polygon class="st2" points="-83.3,57.5 -56.2,57.5 -53,65 -86.5,65 		"/>
		<g>
			<g>
				<path class="st2" d="M-66.4-17.9h-39.2c-2.5,0-4.5,2-4.5,4.5V1.4c0,2.5,2,4.5,4.5,4.5h3.7v7.3l11.4-7.4h24.1
					c2.5,0,4.5-2,4.5-4.5v-14.7C-61.9-15.9-64-17.9-66.4-17.9z"/>
				<g>
					<line class="st2" x1="-74.1" y1="-9.3" x2="-97.9" y2="-9.3"/>
					<line class="st2" x1="-92.5" y1="-2.9" x2="-97.9" y2="-2.9"/>
				</g>
			</g>
		</g>
		<g>
			<path class="st2" d="M-61.9-4.1h12.5c3.2,0,5.7,2.6,5.7,5.7v66.2"/>
			<path class="st2" d="M-104.9,76.8h-44.7c-3.2,0-5.7-2.6-5.7-5.7V1.6c0-3.2,2.6-5.7,5.7-5.7h39.5"/>
			<line class="st2" x1="-155.4" y1="59.3" x2="-88.5" y2="59.3"/>
			<line class="st2" x1="-51.6" y1="59.3" x2="-44.4" y2="59.3"/>
			<g>
				<line class="st2" x1="-113.5" y1="76.8" x2="-116.9" y2="92.4"/>
			</g>
			<line class="st2" x1="-104.9" y1="92.4" x2="-128.3" y2="92.4"/>
		</g>
		<g>
			<path class="st2" d="M-113,23.7c0.4-1.3,0.7-2.8,0.7-4.3c0-7.1-5.1-12.4-11.4-12.4s-11.4,5.3-11.4,12.4c0,1.5,0.2,2.9,0.7,4.3
				c-0.9,0.6-1.5,1.6-1.5,2.8c0,1.5,1,2.8,2.4,3.2c1.6,4.9,5.5,8.3,9.9,8.3s8.3-3.4,9.9-8.3c1.4-0.4,2.4-1.7,2.4-3.2
				C-111.6,25.3-112.2,24.3-113,23.7z"/>
			<path class="st2" d="M-115.9,18.8c-0.3-1.4-1.2-1.3-2.4-1.3c-0.4,0-0.6-3-0.6-3s-1.2,0-3.3,1.8c-4.3,3.9-9.1,0.8-9.1,0.8"/>
			<g>
				<polyline class="st2" points="-123.7,44.7 -119.5,49.4 -113.8,43.2 -116.3,39.1 				"/>
				<path class="st2" d="M-133.5,43.1l-10.6,4.4c-0.7,0.4-1.2,1-1.7,1.6c-0.7,1-1.1,2.2-1.1,3.5V59"/>
				<path class="st2" d="M-113.9,43.1l10.9,4.5c2,1,2.8,3,2.8,5.1v0.4v5.8"/>
				<polyline class="st2" points="-123.7,44.7 -127.9,49.4 -133.5,43.2 -131.1,39.1 				"/>
				<line class="st2" x1="-116.3" y1="39.1" x2="-123.7" y2="44.7"/>
				<line class="st2" x1="-131.1" y1="39.1" x2="-123.7" y2="44.7"/>
			</g>
		</g>
		<line class="st2" x1="-91.8" y1="90.3" x2="-91.8" y2="98.7"/>
		<line class="st2" x1="-46.8" y1="90.3" x2="-46.8" y2="98.7"/>
		<g>
			<path class="st2" d="M-63.7,57.5v-2.2c3.8-2.1,6.8-6,8.5-10.8c2.1-0.6,3.6-2.5,3.6-4.8c0-1.8-0.9-3.3-2.2-4.2c0.6-2,1-4.2,1-6.5
				c0-10.7-7.7-18.7-17.2-18.7s-17.2,8-17.2,18.7c0,2.3,0.3,4.4,1,6.5c-1.3,0.9-2.2,2.4-2.2,4.2c0,2.3,1.5,4.2,3.6,4.8
				c1.6,4.8,4.7,8.7,8.5,10.8v2.2"/>
			<path class="st2" d="M-34.6,98.7V78.3v-0.7c0-3.1-1.2-6.1-4.2-7.6L-53,64.9V65"/>
			<path class="st2" d="M-86.3,64.6l-14.3,5.1c-1,0.6-1.9,1.4-2.5,2.4c-1.1,1.5-1.7,3.3-1.7,5.2v21.4"/>
		</g>
		<line class="st2" x1="-56.5" y1="80.4" x2="-68.3" y2="92.2"/>
		<line class="st2" x1="-57.8" y1="89" x2="-61.7" y2="92.9"/>
		<path class="st2" d="M-53.8,35.5c-1.3,3.6-5,6.9-7.3,8.7c-0.3,0.2-2.5-2.6-2.5-2.6s-1.3,4.9-2,5.2c-6.6,2.5-14.8-0.7-20.7-11.4"/>
	</g>
</g>
<g id="Layer_2_1_">
	
		<image style="overflow:visible;enable-background:new    ;" width="1440" height="790" xlink:href="../../../../../../Desktop/Screen Shot 2020-02-24 at 7.50.25 AM.png"  transform="matrix(0.1034 0 0 0.1034 -169.4482 0)">
	</image>
</g>
<g id="Layer_2_2_">
	
		<image style="overflow:visible;enable-background:new    ;" width="1440" height="790" xlink:href="../../../../../../Desktop/Screen Shot 2020-02-24 at 7.50.25 AM.png"  transform="matrix(0.1038 0 0 0.1038 0 -0.1514)">
	</image>
</g>
</svg>
